<svg width="18" height="18" viewBox="0 0 18 18" fill="none" xmlns="http://www.w3.org/2000/svg">
<circle cx="9" cy="9" r="9" fill="#3873F6"/>
<path d="M12.2032 5.64442C12.1952 5.65219 12.1877 5.66046 12.1807 5.66917L8.27358 10.6473L5.91895 8.29155C5.75901 8.14251 5.54745 8.06137 5.32887 8.06523C5.11028 8.06908 4.90172 8.15763 4.74713 8.31222C4.59254 8.46681 4.50399 8.67537 4.50013 8.89396C4.49627 9.11255 4.57741 9.3241 4.72645 9.48405L7.7032 12.4619C7.78339 12.542 7.87889 12.605 7.98399 12.6474C8.08908 12.6897 8.20163 12.7105 8.31492 12.7084C8.4282 12.7063 8.53991 12.6814 8.64336 12.6352C8.74682 12.589 8.83991 12.5224 8.91708 12.4394L13.4081 6.82567C13.561 6.66517 13.6446 6.45093 13.6408 6.22927C13.6371 6.00762 13.5462 5.79635 13.3879 5.64115C13.2296 5.48595 13.0166 5.39929 12.7949 5.39991C12.5732 5.40052 12.3606 5.48835 12.2032 5.64442V5.64442Z" fill="white"/>
</svg>
