<svg width="22" height="22" viewBox="0 0 22 22" fill="none" xmlns="http://www.w3.org/2000/svg">
<path fill-rule="evenodd" clip-rule="evenodd" d="M11 0C4.80338 0 0 4.53905 0 10.67C0 13.8769 1.31428 16.648 3.45462 18.5621C3.6343 18.7229 3.74276 18.9482 3.75013 19.1893L3.81003 21.146C3.82917 21.7701 4.47386 22.1763 5.04498 21.9241L7.22833 20.9603C7.41342 20.8787 7.62082 20.8635 7.81585 20.9172C8.81916 21.1931 9.887 21.34 11 21.34C17.1967 21.34 22 16.801 22 10.67C22 4.53905 17.1967 0 11 0ZM4.39423 13.7904L7.62549 8.66391C8.13948 7.84837 9.24014 7.64531 10.0113 8.22369L12.5813 10.1512C12.8171 10.3281 13.1416 10.3271 13.3764 10.1489L16.8472 7.51471C17.3105 7.16315 17.9152 7.71755 17.6052 8.20953L14.374 13.336C13.8599 14.1515 12.7593 14.3546 11.9881 13.7762L9.41805 11.8487C9.18228 11.6718 8.85782 11.6728 8.62304 11.851L5.15214 14.4851C4.68888 14.8367 4.08414 14.2823 4.39423 13.7903V13.7904Z" fill="white"/>
</svg>
